<?xml version="1.0" encoding="UTF-8"?>
<!DOCTYPE svg PUBLIC "-//W3C//DTD SVG 1.1//EN" "http://www.w3.org/Graphics/SVG/1.1/DTD/svg11.dtd">
<!-- Creator: CorelDRAW X7 -->
<svg xmlns="http://www.w3.org/2000/svg" xml:space="preserve" width="250px" height="250px" version="1.1" style="shape-rendering:geometricPrecision; text-rendering:geometricPrecision; image-rendering:optimizeQuality; fill-rule:evenodd; clip-rule:evenodd"
viewBox="0 0 250 250"
 xmlns:xlink="http://www.w3.org/1999/xlink">
 <defs>
  <style type="text/css">
   <![CDATA[
    .fil0 {fill:#0064AA}
   ]]>
  </style>
 </defs>
 <g id="Layer_x0020_1">
  <metadata id="CorelCorpID_0Corel-Layer"/>
  <g id="_2124780370320">
   <path class="fil0" d="M51 213c0,0 0,0 1,0 0,0 0,0 1,0 0,0 0,0 0,0 0,0 1,-1 1,-1 0,0 0,0 0,0 0,0 0,0 0,0 1,0 1,0 1,0 0,0 0,0 0,0l1 2c0,1 -1,2 -2,2 -2,1 -3,1 -4,1 -1,0 -2,0 -3,-1 -1,0 -2,-1 -3,-1 0,-1 -1,-2 -1,-3 0,-1 0,-2 0,-3 0,-1 0,-2 0,-3 0,-1 0,-2 1,-3 0,-1 1,-1 1,-2 1,-1 2,-1 2,-2 1,0 2,0 3,-1 1,0 2,0 2,0 1,0 2,0 2,0 1,0 1,0 2,1 0,0 1,0 1,1 1,0 1,0 1,1l-1 1c0,0 -1,0 -1,1 0,0 0,0 0,0 0,0 0,0 -1,0 0,0 0,-1 0,-1 0,0 0,0 0,0 -1,0 -1,0 -1,0 0,0 0,0 -1,-1 0,0 0,0 -1,0 0,0 -1,1 -2,1 -1,0 -1,1 -2,1 0,1 -1,2 -1,3 0,0 0,1 0,2 0,1 0,2 0,3 0,0 1,1 1,1 0,1 1,1 1,1 0,0 1,0 2,0z"/>
   <path class="fil0" d="M78 206c0,0 0,-1 -1,-2 0,0 0,-1 0,-1 -1,-1 -1,-1 -2,-1 0,-1 -1,-1 -1,-1 -1,0 -2,0 -3,1 0,0 -1,1 -1,1 -1,1 -1,2 -2,3 0,0 0,1 0,2 0,1 0,2 0,3 1,0 1,1 1,1 0,1 1,1 1,1 1,0 2,1 2,1 1,0 2,-1 2,-1 1,0 2,-1 2,-1 1,-1 1,-2 1,-3 0,-1 1,-2 1,-3zm4 0c0,1 0,2 -1,3 0,1 0,2 0,3 -1,0 -1,1 -2,2 -1,0 -1,1 -2,1 -1,1 -2,1 -3,1 0,1 -1,1 -2,1 -2,0 -3,0 -4,-1 -1,0 -1,-1 -2,-2 -1,0 -1,-1 -2,-2 0,-1 0,-2 0,-3 0,-1 0,-2 0,-3 0,-1 1,-2 1,-3 1,-1 1,-1 2,-2 0,-1 1,-1 2,-2 1,0 1,0 2,-1 1,0 2,0 3,0 1,0 2,0 3,1 1,0 2,1 3,1 0,1 1,2 1,3 1,1 1,2 1,3z"/>
   <path class="fil0" d="M99 210c0,0 0,0 1,-1 0,0 0,0 0,0l6 -10c0,-1 0,-1 0,-1 1,0 1,0 1,0l3 0 -2 19 -4 0 2 -11c0,0 0,-1 0,-1 0,0 0,0 0,-1l-6 10c0,0 0,0 0,0 -1,1 -1,1 -1,1l-1 0c0,0 0,0 -1,-1 0,0 0,0 0,0l-3 -10c0,1 0,1 0,1 0,0 0,1 0,1l-2 11 -3 0 2 -19 3 0c0,0 0,0 1,0 0,0 0,0 0,0 0,0 0,0 0,0 0,0 0,1 0,1l4 9c0,1 0,2 0,2z"/>
   <path class="fil0" d="M123 201l-1 6 2 0c1,0 1,0 2,0 0,0 0,0 1,-1 0,0 0,0 0,-1 0,0 0,-1 0,-1 0,-1 0,-1 0,-1 0,-1 0,-1 0,-1 0,0 -1,0 -1,-1 0,0 -1,0 -1,0l-2 0zm-1 9l-1 7 -4 0 2 -19 6 0c1,0 2,0 3,1 1,0 2,0 2,1 1,0 1,1 1,1 0,1 1,2 1,2 0,1 -1,2 -1,3 0,1 -1,2 -1,2 -1,1 -2,2 -3,2 -1,0 -2,0 -3,0l-2 0z"/>
   <path class="fil0" d="M142 210l4 0 -1 -6c0,0 0,-1 0,-1 0,0 0,-1 0,-1 0,0 0,0 0,0 0,1 0,1 -1,1 0,0 0,1 0,1 0,0 0,0 0,0l-2 6zm10 7l-3 0c-1,0 -1,0 -1,-1 0,0 -1,0 -1,0l0 -4 -6 0 -2 4c0,0 0,0 0,0 -1,1 -1,1 -1,1l-3 0 8 -19 5 0 4 19z"/>
   <path class="fil0" d="M164 198c0,0 0,0 0,0 1,0 1,0 1,0 0,1 0,1 0,1l6 11c0,0 0,0 1,-1 0,0 0,0 0,0l1 -11 4 0 -3 19 -2 0c0,0 -1,0 -1,-1 0,0 0,0 0,0l-7 -11c0,0 0,0 0,0 0,0 0,1 0,1l-1 11 -4 0 3 -19 2 0c0,0 0,0 0,0z"/>
   <path class="fil0" d="M193 210l-1 7 -4 0 1 -7 -5 -12 4 0c0,0 0,0 0,0 1,1 1,1 1,1l2 6c0,0 0,0 0,1 0,0 0,0 0,1 0,-1 1,-1 1,-1 0,-1 0,-1 0,-1l3 -6c1,0 1,0 1,-1 0,0 1,0 1,0l3 0 -7 12z"/>
   <polygon class="fil0" points="215,179 157,76 121,140 143,179 "/>
   <polygon class="fil0" points="135,179 118,147 100,179 "/>
   <polygon class="fil0" points="116,33 35,179 92,179 144,84 "/>
  </g>
 </g>
</svg>
