<?xml version="1.0" encoding="iso-8859-1"?>
<!-- Generator: Adobe Illustrator 16.0.0, SVG Export Plug-In . SVG Version: 6.00 Build 0)  -->
<!DOCTYPE svg PUBLIC "-//W3C//DTD SVG 1.1//EN" "http://www.w3.org/Graphics/SVG/1.1/DTD/svg11.dtd">
<svg version="1.1" id="Layer_1" xmlns="http://www.w3.org/2000/svg" xmlns:xlink="http://www.w3.org/1999/xlink" x="0px" y="0px"
	 width="365px" height="361px" viewBox="0 0 365 361" style="enable-background:new 0 0 365 361;" xml:space="preserve">
<g>
	<g>
		<path style="fill:#4361EE;" d="M99,1v0.204C54.538,5.998,20.171,38.036,20.171,76.847S54.538,147.695,99,152.489v-39.041
			c-19.188-4.308-33.327-19.059-33.327-36.602S79.813,44.552,99,40.245V40h198V1H99z"/>
		<rect x="162" y="227" style="fill:#4361EE;" width="91" height="39"/>
		<path style="fill:#4361EE;" d="M253,114.204V114H99v39h154v0.245c19,4.308,33.327,19.059,33.327,36.602S272,222.141,253,226.448
			v39.041c45-4.794,78.828-36.832,78.828-75.643S298,118.998,253,114.204z"/>
		<g>
			<rect x="162" y="38" style="fill:#4361EE;" width="39" height="70"/>
			<rect x="162" y="159" style="fill:#4361EE;" width="39" height="70"/>
		</g>
	</g>
	<path style="fill:#4CC9F0;" d="M89.216,2.745c-3.071,0.628-6.081,1.386-9.021,2.271l9.537,38.287
		c2.791-1.236,5.752-2.233,8.85-2.956L89.216,2.745z"/>
	<path style="fill:#4CC9F0;" d="M256.27,154.106L246.279,114h-8.586l9.714,39H253v0.245
		C254.107,153.496,255.195,153.786,256.27,154.106z"/>
	<path style="fill:#4361EE;" d="M22.94,359.884c-2.987,0-6.059-0.307-9.216-0.918s-5.864-1.48-8.115-2.606
		c-1.322-0.636-2.252-1.493-2.791-2.57c-0.54-1.076-0.734-2.19-0.587-3.342c0.146-1.149,0.562-2.178,1.248-3.084
		c0.685-0.905,1.59-1.518,2.717-1.836c1.125-0.318,2.398-0.158,3.819,0.478c1.86,0.93,3.965,1.628,6.315,2.093
		c2.35,0.466,4.553,0.697,6.609,0.697c3.231,0,5.495-0.428,6.793-1.285c1.296-0.855,1.946-1.921,1.946-3.194
		c0-1.126-0.453-2.031-1.358-2.717c-0.907-0.686-2.51-1.272-4.81-1.763L16.918,338c-9.302-2.007-13.953-6.878-13.953-14.614
		c0-3.378,0.918-6.34,2.754-8.886c1.836-2.545,4.394-4.517,7.674-5.911c3.279-1.396,7.098-2.094,11.456-2.094
		c2.545,0,5.128,0.283,7.748,0.845c2.619,0.563,4.884,1.408,6.793,2.534c1.469,0.783,2.398,1.849,2.791,3.194
		c0.391,1.347,0.342,2.656-0.147,3.929c-0.49,1.273-1.358,2.203-2.607,2.791c-1.249,0.587-2.827,0.489-4.737-0.294
		c-1.469-0.636-3.084-1.113-4.847-1.433c-1.762-0.317-3.477-0.477-5.141-0.477c-2.742,0-4.847,0.477-6.315,1.432
		s-2.203,2.191-2.203,3.708c0,1.078,0.441,1.959,1.322,2.645c0.881,0.686,2.448,1.273,4.7,1.762l8.519,1.836
		c9.448,2.009,14.173,6.757,14.173,14.247c0,3.378-0.907,6.315-2.717,8.813c-1.812,2.497-4.358,4.432-7.637,5.802
		C31.263,359.198,27.395,359.884,22.94,359.884z"/>
	<path style="fill:#4361EE;" d="M58.556,359.076c-4.7,0-7.05-2.325-7.05-6.977V314.28c0-4.651,2.35-6.977,7.05-6.977h24.895
		c3.525,0,5.287,1.714,5.287,5.141c0,3.524-1.762,5.287-5.287,5.287h-19.02v9.841h17.404c3.525,0,5.288,1.738,5.288,5.214
		c0,3.477-1.763,5.214-5.288,5.214H64.431v10.648h19.02c3.525,0,5.287,1.738,5.287,5.214c0,3.477-1.762,5.214-5.287,5.214H58.556z"
		/>
	<path style="fill:#4361EE;" d="M103.646,359.076c-4.7,0-7.05-2.325-7.05-6.977V314.28c0-4.651,2.35-6.977,7.05-6.977h14.393
		c8.959,0,15.91,2.252,20.856,6.756c4.944,4.505,7.417,10.868,7.417,19.094c0,8.225-2.473,14.603-7.417,19.13
		c-4.946,4.529-11.897,6.793-20.856,6.793H103.646z M110.108,348.134h7.05c5.141,0,8.947-1.235,11.42-3.708
		c2.471-2.472,3.708-6.229,3.708-11.272c0-5.042-1.249-8.787-3.745-11.236c-2.497-2.447-6.291-3.672-11.383-3.672h-7.05V348.134z"/>
	<path style="fill:#4361EE;" d="M161.073,359.737c-2.155,0-3.818-0.588-4.993-1.763c-1.176-1.175-1.763-2.888-1.763-5.141v-39.288
		c0-2.252,0.587-3.966,1.763-5.141c1.175-1.176,2.838-1.763,4.993-1.763c2.153,0,3.818,0.587,4.994,1.763
		c1.175,1.175,1.762,2.889,1.762,5.141v39.288c0,2.253-0.575,3.966-1.726,5.141S163.276,359.737,161.073,359.737z"/>
	<path style="fill:#4361EE;" d="M179.651,359.737c-2.302,0-3.99-0.783-5.066-2.351c-1.078-1.565-1.078-3.524,0-5.875l18.285-39.361
		c0.882-1.909,1.958-3.305,3.231-4.187c1.272-0.881,2.766-1.321,4.479-1.321c1.664,0,3.133,0.44,4.406,1.321
		c1.272,0.882,2.35,2.277,3.231,4.187l18.285,39.361c1.126,2.399,1.175,4.37,0.147,5.912c-1.028,1.542-2.644,2.313-4.847,2.313
		c-1.959,0-3.465-0.44-4.517-1.322c-1.054-0.881-1.995-2.301-2.827-4.259l-2.351-5.581h-23.132l-2.351,5.581
		c-0.881,1.958-1.787,3.378-2.717,4.259C182.98,359.297,181.561,359.737,179.651,359.737z M200.435,321.403l-7.05,16.816h14.246
		l-7.05-16.816H200.435z"/>
	<path style="fill:#4CC9F0;" d="M246.405,359.737c-2.155,0-3.818-0.588-4.993-1.763c-1.176-1.175-1.763-2.864-1.763-5.067v-34.588
		H228.12c-3.722,0-5.582-1.836-5.582-5.508s1.86-5.508,5.582-5.508h36.571c3.72,0,5.581,1.836,5.581,5.508s-1.861,5.508-5.581,5.508
		h-11.53v34.588c0,2.203-0.575,3.893-1.726,5.067S248.608,359.737,246.405,359.737z"/>
	<path style="fill:#4CC9F0;" d="M281.802,359.076c-4.7,0-7.05-2.325-7.05-6.977V314.28c0-4.651,2.35-6.977,7.05-6.977h24.895
		c3.525,0,5.288,1.714,5.288,5.141c0,3.524-1.763,5.287-5.288,5.287h-19.02v9.841h17.404c3.524,0,5.287,1.738,5.287,5.214
		c0,3.477-1.763,5.214-5.287,5.214h-17.404v10.648h19.02c3.525,0,5.288,1.738,5.288,5.214c0,3.477-1.763,5.214-5.288,5.214H281.802z
		"/>
	<path style="fill:#4CC9F0;" d="M326.598,359.737c-2.155,0-3.818-0.588-4.993-1.763c-1.176-1.175-1.763-2.864-1.763-5.067v-39.436
		c0-2.203,0.587-3.892,1.763-5.066c1.175-1.176,2.838-1.763,4.993-1.763c2.153,0,3.818,0.587,4.994,1.763
		c1.175,1.175,1.762,2.863,1.762,5.066v16.01h0.147l17.845-19.682c0.93-0.979,1.921-1.749,2.975-2.313
		c1.052-0.563,2.239-0.845,3.562-0.845c2.007,0,3.476,0.526,4.406,1.579c0.93,1.053,1.346,2.289,1.248,3.708
		c-0.099,1.421-0.661,2.693-1.688,3.819l-15.275,16.155l16.156,18.286c1.272,1.421,1.909,2.864,1.909,4.333
		s-0.514,2.705-1.542,3.708s-2.497,1.506-4.406,1.506c-1.665,0-3.011-0.331-4.039-0.991c-1.028-0.661-2.105-1.652-3.231-2.975
		l-17.918-20.048h-0.147v17.184c0,2.203-0.575,3.893-1.726,5.067S328.801,359.737,326.598,359.737z"/>
</g>
</svg>
