<?xml version="1.0" encoding="UTF-8"?>
<!DOCTYPE svg PUBLIC "-//W3C//DTD SVG 1.1//EN" "http://www.w3.org/Graphics/SVG/1.1/DTD/svg11.dtd">
<!-- Creator: CorelDRAW X7 -->
<svg xmlns="http://www.w3.org/2000/svg" xml:space="preserve" width="250px" height="250px" version="1.1" style="shape-rendering:geometricPrecision; text-rendering:geometricPrecision; image-rendering:optimizeQuality; fill-rule:evenodd; clip-rule:evenodd"
viewBox="0 0 250 250"
 xmlns:xlink="http://www.w3.org/1999/xlink">
 <defs>
  <style type="text/css">
   <![CDATA[
    .fil0 {fill:#403449}
   ]]>
  </style>
 </defs>
 <g id="Layer_x0020_1">
  <metadata id="CorelCorpID_0Corel-Layer"/>
  <path class="fil0" d="M14 170c1,-1 1,-1 1,-2 0,-1 0,-2 -1,-3 -1,0 -1,0 -3,0l-4 0 0 5 4 0c2,0 2,0 3,0zm-7 -8l4 0c1,0 2,-1 3,-1 0,-1 0,-1 0,-2 0,-1 0,-2 0,-2 -1,-1 -2,-1 -3,-1l-4 0 0 6zm11 3c1,1 1,2 1,3 0,2 0,3 -2,4 -1,1 -2,2 -5,2l-9 0 0 -21 9 0c2,0 4,0 5,1 1,1 2,2 2,4 0,1 -1,3 -1,3 -1,1 -2,2 -3,2 1,0 2,1 3,2z"/>
  <path class="fil0" d="M29 163l4 0c2,0 4,-1 4,-3 0,-1 -1,-2 -1,-3 -1,0 -2,-1 -3,-1l-4 0 0 7zm7 11l-5 -8 -2 0 0 8 -4 0 0 -21 8 0c3,0 5,0 6,2 1,1 2,2 2,4 0,2 -1,3 -2,4 0,1 -2,2 -3,2l5 9 -5 0z"/>
  <path class="fil0" d="M58 166l-3 -8 -3 8 6 0zm2 4l-9 0 -1 4 -5 0 8 -21 5 0 8 21 -5 0 -1 -4z"/>
  <polygon class="fil0" points="89,174 85,174 75,160 75,174 71,174 71,153 75,153 85,167 85,153 89,153 "/>
  <path class="fil0" d="M108 168c1,-1 2,-3 2,-5 0,-2 -1,-4 -2,-5 -1,-1 -3,-2 -5,-2l-3 0 0 14 3 0c2,0 4,0 5,-2zm5 1c-1,1 -2,3 -4,4 -2,0 -4,1 -6,1l-7 0 0 -21 7 0c2,0 4,0 6,1 2,1 3,2 4,4 1,1 1,3 1,5 0,2 0,4 -1,6z"/>
  <path class="fil0" d="M62 35c0,0 55,21 54,50l0 0 0 51c0,0 -55,-21 -54,-51l0 0 0 -50z"/>
  <path class="fil0" d="M164 124c10,-7 22,-11 35,-13l0 -15c-7,2 -14,6 -20,12 -6,4 -11,10 -15,16z"/>
  <path class="fil0" d="M158 129c5,-9 11,-17 19,-24 6,-5 14,-10 22,-13l0 -45c0,0 -78,29 -76,72l0 0 0 71c0,0 3,-1 9,-3 0,-3 0,-5 0,-7 2,-21 12,-39 26,-51z"/>
  <path class="fil0" d="M151 156c0,-6 1,-10 2,-15 -9,11 -15,24 -16,39 0,1 0,3 0,4 4,-2 10,-5 15,-8 -1,-6 -2,-13 -1,-20z"/>
  <path class="fil0" d="M154 156c-1,6 0,12 1,19 21,-13 45,-33 44,-56l0 0 0 -2c-15,1 -30,8 -40,18 -3,7 -5,14 -5,21z"/>
 </g>
</svg>
