<?xml version="1.0" encoding="UTF-8"?>
<!DOCTYPE svg PUBLIC "-//W3C//DTD SVG 1.1//EN" "http://www.w3.org/Graphics/SVG/1.1/DTD/svg11.dtd">
<!-- Creator: CorelDRAW X7 -->
<svg xmlns="http://www.w3.org/2000/svg" xml:space="preserve" width="250px" height="250px" version="1.1" style="shape-rendering:geometricPrecision; text-rendering:geometricPrecision; image-rendering:optimizeQuality; fill-rule:evenodd; clip-rule:evenodd"
viewBox="0 0 250 250"
 xmlns:xlink="http://www.w3.org/1999/xlink">
 <defs>
  <style type="text/css">
   <![CDATA[
    .fil0 {fill:#F6B217}
   ]]>
  </style>
 </defs>
 <g id="Layer_x0020_1">
  <metadata id="CorelCorpID_0Corel-Layer"/>
  <path class="fil0" d="M168 177l0 0 -78 0 -39 -67 39 -67 1 0 8 15 10 -16 1 0 -10 17 5 8 14 -25 2 0 -15 27 4 8 20 -35 2 0 -21 37 4 7 25 -44 4 0 -27 46 3 7 31 -53 4 0 -33 56 4 6 35 -62 5 0 -38 66 3 5 38 -66 4 6 -39 66 34 58zm4 -141l-86 0 -43 74 43 75 86 0 43 -75 -43 -74z"/>
  <path class="fil0" d="M53 212c0,-1 -1,-2 -3,-2l-4 0 0 4 4 0c2,0 3,-1 3,-2zm-7 -8l0 4 4 0c1,0 1,0 2,-1 0,0 0,0 0,-1 0,-1 0,-1 0,-1 -1,-1 -1,-1 -2,-1l-4 0zm9 6c1,1 1,1 1,2 0,1 -1,2 -2,3 -1,1 -2,1 -4,1l-6 0 0 -14 6 0c2,0 3,1 4,1 1,1 1,2 1,3 0,0 0,1 0,2 -1,0 -1,0 -2,1 1,0 2,0 2,1z"/>
  <path class="fil0" d="M70 205c0,0 -1,-1 -2,-1l-3 0 0 6 3 0c1,0 2,0 2,-1 1,0 1,-1 1,-2 0,-1 0,-1 -1,-2zm1 11l-3 -4c0,0 0,0 0,0l-3 0 0 4 -3 0 0 -14 6 0c1,0 2,0 3,1 1,0 2,1 2,1 1,1 1,2 1,3 0,1 0,2 -1,3 0,0 -1,1 -2,1l3 5 -3 0z"/>
  <path class="fil0" d="M88 211l-2 -6 -3 6 5 0zm1 2l-6 0 -2 3 -2 0 6 -14 2 0 6 14 -2 0 -2 -3z"/>
  <polygon class="fil0" points="111,202 111,216 109,216 101,207 101,216 99,216 99,202 101,202 109,211 109,202 "/>
  <path class="fil0" d="M125 214c1,0 1,0 2,-1 1,0 2,-1 2,-1 0,-1 1,-2 1,-3 0,-1 -1,-2 -1,-2 0,-1 -1,-2 -2,-2 -1,0 -1,-1 -2,-1l-4 0 0 10 4 0zm-6 -12l6 0c1,0 2,0 4,1 1,1 2,1 2,2 1,1 1,3 1,4 0,1 0,3 -1,4 0,1 -1,1 -2,2 -2,1 -3,1 -4,1l-6 0 0 -14z"/>
  <polygon class="fil0" points="160,202 160,216 158,216 150,207 150,216 148,216 148,202 150,202 158,211 158,202 "/>
  <path class="fil0" d="M176 211l-3 -6 -2 6 5 0zm0 2l-6 0 -2 3 -2 0 6 -14 2 0 7 14 -3 0 -2 -3z"/>
  <polygon class="fil0" points="199,216 199,207 194,214 193,214 189,207 189,216 186,216 186,202 188,202 194,211 199,202 201,202 201,216 "/>
  <polygon class="fil0" points="219,214 219,216 209,216 209,202 219,202 219,204 211,204 211,208 218,208 218,210 211,210 211,214 "/>
 </g>
</svg>
