<?xml version="1.0" encoding="UTF-8"?>
<!DOCTYPE svg PUBLIC "-//W3C//DTD SVG 1.1//EN" "http://www.w3.org/Graphics/SVG/1.1/DTD/svg11.dtd">
<!-- Creator: CorelDRAW X7 -->
<svg xmlns="http://www.w3.org/2000/svg" xml:space="preserve" width="250px" height="250px" version="1.1" style="shape-rendering:geometricPrecision; text-rendering:geometricPrecision; image-rendering:optimizeQuality; fill-rule:evenodd; clip-rule:evenodd"
viewBox="0 0 250 250"
 xmlns:xlink="http://www.w3.org/1999/xlink">
 <defs>
  <style type="text/css">
   <![CDATA[
    .fil0 {fill:#CE5959}
   ]]>
  </style>
 </defs>
 <g id="Layer_x0020_1">
  <metadata id="CorelCorpID_0Corel-Layer"/>
  <g id="_2124914916896">
   <path class="fil0" d="M21 225l0 5 3 0c0,0 1,0 1,0 1,-1 1,-1 1,-1 0,0 0,-1 0,-1 1,0 1,0 1,-1 0,0 0,0 -1,-1 0,0 0,0 0,0 0,-1 -1,-1 -1,-1 0,0 -1,0 -1,0l-3 0zm0 -3l2 0c0,0 1,0 1,0 1,0 1,0 1,0 1,0 1,-1 1,-1 0,0 0,-1 0,-1 0,-1 0,-1 0,-1 0,-1 0,-1 -1,-1 0,0 0,0 0,0 -1,0 -1,0 -2,0l-2 0 0 4zm-5 11l0 -19 7 0c2,0 3,0 4,1 0,0 1,0 2,1 0,0 1,1 1,1 0,1 0,2 0,2 0,1 0,1 0,2 0,0 0,0 0,1 -1,0 -1,0 -1,1 -1,0 -1,0 -2,0 1,1 2,1 3,2 1,0 1,1 1,2 0,1 0,2 -1,3 0,0 0,1 -1,1 -1,1 -1,1 -2,2 -1,0 -2,0 -3,0l-8 0z"/>
   <path class="fil0" d="M43 223l1 0c1,0 2,0 2,0 0,0 1,-1 1,-1 0,0 0,0 1,-1 0,0 0,0 0,-1 0,-1 -1,-1 -1,-2 -1,0 -1,0 -3,0l-1 0 0 5zm0 3l0 7 -5 0 0 -19 6 0c2,0 3,0 4,1 1,0 2,0 2,1 1,0 1,1 2,2 0,0 0,1 0,2 0,0 0,1 0,2 0,0 -1,1 -1,1 0,1 -1,1 -1,1 -1,1 -1,1 -2,1 1,0 1,0 1,1 0,0 1,0 1,0l4 7 -4 0c-1,0 -1,0 -2,-1l-3 -5c0,0 0,-1 0,-1 -1,0 -1,0 -1,0l-1 0z"/>
   <path class="fil0" d="M66 226l5 0 -2 -5c0,-1 0,-1 0,-1 0,-1 0,-1 0,-2 -1,1 -1,1 -1,2 0,0 0,0 0,1l-2 5zm12 7l-3 0c-1,0 -1,0 -1,0 0,0 -1,-1 -1,-1l-1 -3 -7 0 -1 3c0,0 0,1 -1,1 0,0 0,0 -1,0l-3 0 7 -19 5 0 7 19z"/>
   <path class="fil0" d="M87 214c1,0 1,0 1,0 0,0 0,1 0,1 0,0 0,0 0,0l9 11c0,0 0,-1 0,-1 0,0 0,-1 0,-1l0 -10 4 0 0 19 -2 0c-1,0 -1,0 -1,0 0,0 -1,0 -1,-1l-9 -11c0,0 1,1 1,1 0,0 0,1 0,1l0 10 -4 0 0 -19 2 0c0,0 0,0 0,0z"/>
   <path class="fil0" d="M122 224c0,-1 0,-2 -1,-3 0,-1 0,-1 -1,-2 0,0 -1,-1 -1,-1 -1,0 -2,0 -2,0l-3 0 0 12 3 0c0,0 1,0 2,-1 0,0 1,0 1,-1 1,0 1,-1 1,-2 1,-1 1,-1 1,-2zm4 0c0,1 0,2 0,3 -1,2 -2,3 -2,3 -1,1 -2,2 -3,2 -2,1 -3,1 -4,1l-8 0 0 -19 8 0c1,0 2,1 4,1 1,0 2,1 3,2 0,1 1,2 2,3 0,1 0,2 0,4z"/>
   <path class="fil0" d="M146 214c1,0 1,0 1,0 0,0 0,1 0,1 0,0 0,0 0,0l9 11c0,0 0,-1 0,-1 0,0 0,-1 0,-1l0 -10 4 0 0 19 -2 0c-1,0 -1,0 -1,0 0,0 -1,0 -1,-1l-9 -11c0,0 0,1 0,1 0,0 0,1 0,1l0 10 -3 0 0 -19 2 0c0,0 0,0 0,0z"/>
   <path class="fil0" d="M174 226l5 0 -2 -5c0,-1 0,-1 0,-1 -1,-1 -1,-1 -1,-2 0,1 0,1 0,2 0,0 -1,0 -1,1l-1 5zm12 7l-4 0c0,0 0,0 -1,0 0,0 0,-1 0,-1l-1 -3 -7 0 -2 3c0,0 0,1 0,1 0,0 -1,0 -1,0l-3 0 7 -19 4 0 8 19z"/>
   <path class="fil0" d="M202 225c1,1 1,1 1,2 0,-1 0,-1 0,-2 0,0 1,0 1,-1l5 -9c0,0 0,0 0,0 0,-1 0,-1 0,-1 0,0 0,0 1,0 0,0 0,0 0,0l3 0 0 19 -3 0 0 -11c0,0 0,-1 0,-1l-5 9c-1,0 -1,1 -1,1 0,0 -1,0 -1,0l0 0c-1,0 -1,0 -1,0 -1,0 -1,-1 -1,-1l-5 -9c0,0 0,0 0,0 0,1 0,1 0,1l0 11 -4 0 0 -19 4 0c0,0 0,0 0,0 0,0 0,0 0,0 1,0 1,0 1,1 0,0 0,0 0,0l5 9c0,1 0,1 0,1z"/>
   <polygon class="fil0" points="234,214 234,218 226,218 226,222 232,222 232,225 226,225 226,230 234,230 234,233 222,233 222,214 "/>
   <path class="fil0" d="M200 63l-150 0c-4,0 -7,4 -5,8l75 130c1,1 3,2 5,2 1,0 3,-1 4,-2l75 -130c2,-4 -1,-8 -4,-8l0 0zm-4 7l-71 124 -72 -124 143 0z"/>
   <path class="fil0" d="M89 127l23 -40 38 65 -46 0 -15 -25zm15 -54l5 8 -23 40 -5 -8 23 -40zm21 -56l-84 145 167 0 -83 -145z"/>
  </g>
 </g>
</svg>
